<?xml version="1.0" encoding="UTF-8" standalone="no"?>
<!-- Created with Inkscape (http://www.inkscape.org/) -->

<svg
   xmlns:dc="http://purl.org/dc/elements/1.1/"
   xmlns:cc="http://creativecommons.org/ns#"
   xmlns:rdf="http://www.w3.org/1999/02/22-rdf-syntax-ns#"
   xmlns:svg="http://www.w3.org/2000/svg"
   xmlns="http://www.w3.org/2000/svg"
   xmlns:sodipodi="http://sodipodi.sourceforge.net/DTD/sodipodi-0.dtd"
   xmlns:inkscape="http://www.inkscape.org/namespaces/inkscape"
   width="154.04001mm"
   height="88.272141mm"
   viewBox="0 0 154.04001 88.272141"
   version="1.1"
   id="svg8"
   inkscape:version="0.92.4 (5da689c313, 2019-01-14)"
   sodipodi:docname="bft.svg">
  <defs
     id="defs2" />
  <sodipodi:namedview
     id="base"
     pagecolor="#ffffff"
     bordercolor="#666666"
     borderopacity="1.0"
     inkscape:pageopacity="0.0"
     inkscape:pageshadow="2"
     inkscape:zoom="1.4"
     inkscape:cx="393.53963"
     inkscape:cy="130.38356"
     inkscape:document-units="mm"
     inkscape:current-layer="layer1"
     showgrid="false"
     inkscape:window-width="1920"
     inkscape:window-height="996"
     inkscape:window-x="0"
     inkscape:window-y="28"
     inkscape:window-maximized="1"
     showguides="false"
     fit-margin-top="5"
     fit-margin-left="5"
     fit-margin-right="5"
     fit-margin-bottom="5" />
  <metadata
     id="metadata5">
    <rdf:RDF>
      <cc:Work
         rdf:about="">
        <dc:format>image/svg+xml</dc:format>
        <dc:type
           rdf:resource="http://purl.org/dc/dcmitype/StillImage" />
        <dc:title />
      </cc:Work>
    </rdf:RDF>
  </metadata>
  <g
     inkscape:label="Layer 1"
     inkscape:groupmode="layer"
     id="layer1"
     transform="translate(-11.804406,-51.02464)">
    <rect
       style="opacity:1;fill:#ffffff;fill-opacity:1;stroke:#000000;stroke-width:1.16499996;stroke-miterlimit:4;stroke-dasharray:none;stroke-opacity:1"
       id="rect815-3"
       width="20.410715"
       height="25.702381"
       x="58.208332"
       y="56.60714" />
    <rect
       style="opacity:1;fill:#ffffff;fill-opacity:1;stroke:#000000;stroke-width:1.16499996;stroke-miterlimit:4;stroke-dasharray:none;stroke-opacity:1"
       id="rect815-6"
       width="20.410715"
       height="25.702381"
       x="78.619049"
       y="56.60714" />
    <rect
       style="opacity:1;fill:#ffffff;fill-opacity:1;stroke:#000000;stroke-width:1.16499996;stroke-miterlimit:4;stroke-dasharray:none;stroke-opacity:1"
       id="rect815-7"
       width="20.410715"
       height="25.702381"
       x="37.797623"
       y="56.607143" />
    <rect
       style="opacity:1;fill:#ffffff;fill-opacity:1;stroke:#000000;stroke-width:1.16499996;stroke-miterlimit:4;stroke-dasharray:none;stroke-opacity:1"
       id="rect815-3-5"
       width="20.410715"
       height="25.702381"
       x="99.02977"
       y="56.607143" />
    <rect
       style="opacity:1;fill:#d9d9d9;fill-opacity:1;stroke:#000000;stroke-width:1.16499996;stroke-miterlimit:4;stroke-dasharray:none;stroke-opacity:1"
       id="rect815-6-3"
       width="20.410715"
       height="25.702381"
       x="119.44048"
       y="56.607143" />
    <rect
       style="opacity:1;fill:#d9d9d9;fill-opacity:1;stroke:#000000;stroke-width:1.16499996;stroke-miterlimit:4;stroke-dasharray:none;stroke-opacity:1"
       id="rect815-6-3-5"
       width="20.410715"
       height="25.702381"
       x="139.8512"
       y="56.607143" />
    <rect
       style="opacity:1;fill:#ffffff;fill-opacity:1;stroke:#000000;stroke-width:1.16499996;stroke-miterlimit:4;stroke-dasharray:none;stroke-opacity:1"
       id="rect815-62"
       width="20.410715"
       height="25.702381"
       x="17.386909"
       y="82.309525" />
    <rect
       style="opacity:1;fill:#ffffff;fill-opacity:1;stroke:#000000;stroke-width:1.16499996;stroke-miterlimit:4;stroke-dasharray:none;stroke-opacity:1"
       id="rect815-3-9"
       width="20.410715"
       height="25.702381"
       x="58.208336"
       y="82.309517" />
    <rect
       style="opacity:1;fill:#1ece00;fill-opacity:1;stroke:#000000;stroke-width:1.16683948;stroke-miterlimit:4;stroke-dasharray:none;stroke-opacity:1"
       id="rect815-6-1"
       width="20.475227"
       height="25.702374"
       x="78.688171"
       y="82.309525" />
    <rect
       style="opacity:1;fill:#ffffff;fill-opacity:1;stroke:#000000;stroke-width:1.16499996;stroke-miterlimit:4;stroke-dasharray:none;stroke-opacity:1"
       id="rect815-7-2"
       width="20.410715"
       height="25.702381"
       x="37.79763"
       y="82.309525" />
    <rect
       style="opacity:1;fill:#ffffff;fill-opacity:1;stroke:#000000;stroke-width:1.16499996;stroke-miterlimit:4;stroke-dasharray:none;stroke-opacity:1"
       id="rect815-3-5-7"
       width="20.410715"
       height="25.702381"
       x="99.02977"
       y="82.309525" />
    <rect
       style="opacity:1;fill:#d9d9d9;fill-opacity:1;stroke:#000000;stroke-width:1.16499996;stroke-miterlimit:4;stroke-dasharray:none;stroke-opacity:1"
       id="rect815-6-3-0"
       width="20.410715"
       height="25.702381"
       x="119.44048"
       y="82.309525" />
    <rect
       style="opacity:1;fill:#d9d9d9;fill-opacity:1;stroke:#000000;stroke-width:1.16499996;stroke-miterlimit:4;stroke-dasharray:none;stroke-opacity:1"
       id="rect815-6-3-5-9"
       width="20.410715"
       height="25.702381"
       x="139.8512"
       y="82.309525" />
    <rect
       style="opacity:1;fill:#ffffff;fill-opacity:1;stroke:#000000;stroke-width:1.16499996;stroke-miterlimit:4;stroke-dasharray:none;stroke-opacity:1"
       id="rect815-9"
       width="20.410715"
       height="25.702381"
       x="17.386909"
       y="108.0119" />
    <rect
       style="opacity:1;fill:#ffffff;fill-opacity:1;stroke:#000000;stroke-width:1.16499996;stroke-miterlimit:4;stroke-dasharray:none;stroke-opacity:1"
       id="rect815-3-2"
       width="20.410715"
       height="25.702381"
       x="58.208324"
       y="108.0119" />
    <rect
       style="opacity:1;fill:#ffffff;fill-opacity:1;stroke:#000000;stroke-width:1.16499996;stroke-miterlimit:4;stroke-dasharray:none;stroke-opacity:1"
       id="rect815-6-0"
       width="20.410715"
       height="25.702381"
       x="78.619034"
       y="108.0119" />
    <rect
       style="opacity:1;fill:#ffffff;fill-opacity:1;stroke:#000000;stroke-width:1.16499996;stroke-miterlimit:4;stroke-dasharray:none;stroke-opacity:1"
       id="rect815-7-23"
       width="20.410715"
       height="25.702381"
       x="37.797623"
       y="108.0119" />
    <rect
       style="opacity:1;fill:#ffffff;fill-opacity:1;stroke:#000000;stroke-width:1.16499996;stroke-miterlimit:4;stroke-dasharray:none;stroke-opacity:1"
       id="rect815-3-5-75"
       width="20.410715"
       height="25.702381"
       x="99.029755"
       y="108.0119" />
    <rect
       style="opacity:1;fill:#d9d9d9;fill-opacity:1;stroke:#000000;stroke-width:1.16499996;stroke-miterlimit:4;stroke-dasharray:none;stroke-opacity:1"
       id="rect815-6-3-9"
       width="20.410715"
       height="25.702381"
       x="119.44048"
       y="108.0119" />
    <rect
       style="opacity:1;fill:#d9d9d9;fill-opacity:1;stroke:#000000;stroke-width:1.16499996;stroke-miterlimit:4;stroke-dasharray:none;stroke-opacity:1"
       id="rect815-6-3-5-2"
       width="20.410715"
       height="25.702381"
       x="139.8512"
       y="108.0119" />
    <g
       id="g1163"
       transform="matrix(0,0.71161051,-1.0810804,0,250.29646,43.899389)"
       style="stroke-width:1.21329939;stroke-miterlimit:4;stroke-dasharray:none">
      <ellipse
         ry="2.5729935"
         rx="7.0458202"
         cy="146.508"
         cx="68.683365"
         id="path1051-69"
         style="opacity:1;fill:none;fill-opacity:1;stroke:#000000;stroke-width:1.21329939;stroke-miterlimit:4;stroke-dasharray:none;stroke-opacity:1" />
      <ellipse
         ry="2.5729935"
         rx="7.0458212"
         cy="151.32555"
         cx="68.536583"
         id="path1051-6-3"
         style="opacity:1;fill:none;fill-opacity:1;stroke:#000000;stroke-width:1.21329939;stroke-miterlimit:4;stroke-dasharray:none;stroke-opacity:1" />
      <ellipse
         ry="2.5729935"
         rx="7.0458212"
         cy="153.42653"
         cx="68.536583"
         id="path1051-6-1-7"
         style="opacity:1;fill:none;fill-opacity:1;stroke:#000000;stroke-width:1.21329939;stroke-miterlimit:4;stroke-dasharray:none;stroke-opacity:1" />
      <ellipse
         ry="2.5729935"
         rx="7.0458212"
         cy="149.16409"
         cx="68.521996"
         id="path1051-6-5-4"
         style="opacity:1;fill:none;fill-opacity:1;stroke:#000000;stroke-width:1.21329939;stroke-miterlimit:4;stroke-dasharray:none;stroke-opacity:1" />
    </g>
    <path
       style="fill:#808080;fill-opacity:0.97752811;stroke:#000000;stroke-width:0.28156623px;stroke-linecap:butt;stroke-linejoin:miter;stroke-opacity:1"
       d="m 81.543001,108.38954 c 0.932646,1.59931 -0.110658,1.98897 -0.299207,2.79346 -0.188547,0.80447 0.527937,1.00559 0.553076,1.52096 0.02515,0.51536 -0.540507,0.45252 -0.490227,0.95531 0.05029,0.50279 0.716487,0.72906 0.465088,1.3827 -0.251399,0.65363 -0.653636,0.84218 -0.452517,1.20671 0.201118,0.36452 2.074032,1.00498 4.135503,2.4634 2.061467,1.4584 0.234529,0.4214 1.340681,0.9242 1.106152,0.50279 2.364644,0.43432 3.370239,0.0824 1.005594,-0.35195 0.870125,-0.10122 1.423203,-0.95598 0.553077,-0.85476 1.307273,-0.60336 1.960909,-0.70392 0.653633,-0.10056 2.413423,-1.05587 2.614542,-1.45811 0.20112,-0.40224 0.553078,-0.2514 0.05028,-1.10615 -0.502795,-0.85476 -0.653637,-0.20113 -0.452517,-0.85476 0.201118,-0.65363 0.854754,-1.15643 0.502796,-1.70951 -0.351958,-0.55307 0.703917,-1.55867 0.2514,-1.9609 -0.452517,-0.40224 -0.905035,-0.95533 -1.106154,-1.40783 -0.201119,-0.45252 1.237834,-0.31812 1.237834,-0.31812 0,0 -0.735038,-1.79363 -1.137275,-2.04503 -0.402238,-0.2514 -3.519578,-1.30727 -4.273772,-1.30727 -0.754195,0 -1.55867,-0.0503 -3.318459,0 -1.75979,0.0502 -2.413425,0.10057 -3.770977,0.60335 -1.357552,0.5028 -1.920728,-0.28617 -2.262588,0.80448 l -0.341857,1.09065 z"
       id="path854"
       inkscape:connector-curvature="0"
       sodipodi:nodetypes="cccccccccssccccccccsccccc" />
    <path
       style="fill:none;stroke:#000000;stroke-width:1.06418753;stroke-linecap:butt;stroke-linejoin:miter;stroke-miterlimit:4;stroke-dasharray:none;stroke-opacity:1"
       d="m 85.464439,108.2444 c 0,-10.808145 2e-6,-10.817031 2e-6,-10.817031"
       id="path856"
       inkscape:connector-curvature="0" />
    <path
       style="fill:none;stroke:#000000;stroke-width:1.06418753;stroke-linecap:butt;stroke-linejoin:miter;stroke-miterlimit:4;stroke-dasharray:none;stroke-opacity:1"
       d="m 91.29515,108.39108 c 0,-10.808152 2e-6,-10.817037 2e-6,-10.817037"
       id="path856-3"
       inkscape:connector-curvature="0" />
    <path
       style="opacity:1;fill:none;fill-opacity:1;stroke:#000000;stroke-width:1.15929401;stroke-miterlimit:4;stroke-dasharray:none;stroke-opacity:1"
       id="path1051-67"
       sodipodi:type="arc"
       sodipodi:cx="88.949448"
       sodipodi:cy="108.49625"
       sodipodi:rx="7.4980731"
       sodipodi:ry="2.7381473"
       sodipodi:start="3.2517082"
       sodipodi:end="6.2273332"
       d="m 81.496787,108.19534 a 7.4980731,2.7381473 0 0 1 7.656071,-2.43623 7.4980731,2.7381473 0 0 1 7.282971,2.58428"
       sodipodi:open="true" />
    <path
       style="fill:#ffee00;fill-opacity:0.69662924;stroke:#000000;stroke-width:0.28156623px;stroke-linecap:butt;stroke-linejoin:miter;stroke-opacity:1"
       d="m 81.543004,108.38954 c -0.817721,-6.36401 -2.848098,-6.14142 -5.086018,-8.670287 -2.237923,-2.528907 -2.941751,-4.209779 -3.394268,-7.528236 -0.452519,-3.318458 -0.692415,-6.377668 0.871921,-8.795277 1.564337,-2.417612 4.693009,-6.826197 8.177214,-8.035003 3.484205,-1.208806 7.181728,-1.777657 7.181728,-1.777657 0,0 5.546284,0.711065 7.679479,2.133188 2.133188,1.422124 5.19075,3.981947 6.18624,6.328452 0.99548,2.346506 1.56433,4.12416 1.63544,6.897304 0.0711,2.773144 -0.71106,6.541771 -1.49323,8.106109 -0.78217,1.564338 -2.70204,2.488713 -3.981949,4.408537 -1.27991,1.91987 -2.630937,2.48872 -2.488719,4.26637 -0.213316,1.88432 -0.106663,1.17326 -0.213316,1.88432 -0.31998,0.67553 0.03044,1.636 -1.463417,2.25592 -1.363214,0.3405 -1.894957,1.08535 -5.104852,1.27778 -2.651986,0.15897 -0.1257,0.35196 -4.784205,-0.56823 -2.549482,-0.5036 -3.722048,-2.18329 -3.722048,-2.18329 z"
       id="path1172"
       inkscape:connector-curvature="0"
       sodipodi:nodetypes="ccssscssssccccssc" />
    <path
       style="opacity:1;fill:none;fill-opacity:1;stroke:#000000;stroke-width:1.17718065;stroke-miterlimit:4;stroke-dasharray:none;stroke-opacity:1"
       id="path1051"
       sodipodi:type="arc"
       sodipodi:cx="88.944862"
       sodipodi:cy="108.47461"
       sodipodi:rx="7.7312317"
       sodipodi:ry="2.7381473"
       sodipodi:start="6.2315389"
       sodipodi:end="3.275294"
       d="m 96.665785,108.33326 a 7.7312317,2.7381473 0 0 1 -3.92337,2.52641 7.7312317,2.7381473 0 0 1 -8.134289,-0.11826 7.7312317,2.7381473 0 0 1 -3.325496,-2.6318"
       sodipodi:open="true" />
    <path
       style="opacity:1;fill:none;fill-opacity:1;stroke:#000000;stroke-width:1.15929401;stroke-miterlimit:4;stroke-dasharray:none;stroke-opacity:1"
       id="path1051-6"
       sodipodi:type="arc"
       sodipodi:cx="88.788689"
       sodipodi:cy="113.22339"
       sodipodi:rx="7.4980745"
       sodipodi:ry="2.7381473"
       sodipodi:start="5.9128758"
       sodipodi:end="3.4993525"
       sodipodi:open="true"
       d="m 95.778509,112.23244 a 7.4980745,2.7381473 0 0 1 -2.444818,3.16872 7.4980745,2.7381473 0 0 1 -9.014808,0.0207 7.4980745,2.7381473 0 0 1 -2.553518,-3.15727" />
    <path
       style="opacity:1;fill:none;fill-opacity:1;stroke:#000000;stroke-width:1.15929401;stroke-miterlimit:4;stroke-dasharray:none;stroke-opacity:1"
       id="path1051-6-1"
       sodipodi:type="arc"
       sodipodi:cx="88.788689"
       sodipodi:cy="115.45923"
       sodipodi:rx="7.4980745"
       sodipodi:ry="2.7381473"
       sodipodi:start="5.8656002"
       sodipodi:end="3.5646838"
       d="m 95.642461,114.34876 a 7.4980745,2.7381473 0 0 1 -2.250901,3.27197 7.4980745,2.7381473 0 0 1 -9.238263,-0.009 7.4980745,2.7381473 0 0 1 -2.201534,-3.27645"
       sodipodi:open="true" />
    <g
       id="g1168"
       style="fill:#ffec60;fill-opacity:0.66853937"
       transform="matrix(1.0641875,0,0,1.0641875,16.169302,-5.7353968)">
      <path
         sodipodi:open="true"
         d="m 56.828532,99.416365 a 15,15 0 0 1 1.197042,-20.552419 15,15 0 0 1 20.587249,10e-7 15,15 0 0 1 1.197042,20.552419"
         sodipodi:end="0.6981317"
         sodipodi:start="2.443461"
         sodipodi:ry="15"
         sodipodi:rx="15"
         sodipodi:cy="89.774551"
         sodipodi:cx="68.319199"
         sodipodi:type="arc"
         id="path1049"
         style="opacity:1;fill:none;fill-opacity:0.66853937;stroke:#000000;stroke-width:1.16499996;stroke-miterlimit:4;stroke-dasharray:none;stroke-opacity:1" />
      <path
         sodipodi:open="true"
         d="m 56.68419,99.291526 a 10.125574,10 0 0 1 4.736829,8.828744"
         sodipodi:end="0.035854654"
         sodipodi:start="5.2728171"
         sodipodi:ry="10"
         sodipodi:rx="10.125574"
         sodipodi:cy="107.7618"
         sodipodi:cx="51.301952"
         sodipodi:type="arc"
         id="path1091"
         style="opacity:1;fill:none;fill-opacity:0.66853937;stroke:#000000;stroke-width:1.16499996;stroke-miterlimit:4;stroke-dasharray:none;stroke-opacity:1" />
      <path
         sodipodi:open="true"
         d="m -79.94765,99.338653 a 10.125574,10 0 0 1 4.736829,8.828747"
         sodipodi:end="0.035854654"
         sodipodi:start="5.2728171"
         sodipodi:ry="10"
         sodipodi:rx="10.125574"
         sodipodi:cy="107.80893"
         sodipodi:cx="-85.329887"
         sodipodi:type="arc"
         id="path1091-4"
         style="opacity:1;fill:none;fill-opacity:0.66853937;stroke:#000000;stroke-width:1.16499996;stroke-miterlimit:4;stroke-dasharray:none;stroke-opacity:1"
         transform="scale(-1,1)" />
    </g>
    <path
       style="opacity:1;fill:none;fill-opacity:1;stroke:#000000;stroke-width:1.15929401;stroke-miterlimit:4;stroke-dasharray:none;stroke-opacity:1"
       id="path1051-6-5"
       sodipodi:type="arc"
       sodipodi:cx="88.77317"
       sodipodi:cy="110.92323"
       sodipodi:rx="7.4980745"
       sodipodi:ry="2.7381473"
       sodipodi:start="5.8422997"
       sodipodi:end="3.6332003"
       d="m 95.554235,109.75475 a 7.4980745,2.7381473 0 0 1 -2.221555,3.34221 7.4980745,2.7381473 0 0 1 -9.414947,-0.0872 7.4980745,2.7381473 0 0 1 -1.754678,-3.37904"
       sodipodi:open="true" />
    <path
       style="fill:#ffee00;fill-opacity:0.69662924;stroke:#fff800;stroke-width:2.12837505;stroke-linecap:butt;stroke-linejoin:miter;stroke-miterlimit:4;stroke-dasharray:none;stroke-opacity:0.55617975"
       d="M 65.943656,63.993539 74.760824,75.65496"
       id="path1193"
       inkscape:connector-curvature="0"
       sodipodi:nodetypes="cc" />
    <flowRoot
       xml:space="preserve"
       id="flowRoot858-3-0"
       style="font-style:normal;font-weight:normal;font-size:33.57644264px;line-height:1.25;font-family:sans-serif;letter-spacing:0px;word-spacing:0px;fill:#000000;fill-opacity:1;stroke:none;"
       transform="matrix(0.16810728,0,0,0.16810728,76.357941,53.850326)"><flowRegion
         id="flowRegion860-6-9"
         style="font-size:33.57644264px;"><rect
           id="rect862-7-3"
           width="63.90078"
           height="65.384903"
           x="21.099218"
           y="21.099226"
           style="font-size:33.57644264px;" /></flowRegion><flowPara
         id="flowPara864-5-6">Do</flowPara></flowRoot>    <path
       style="fill:#ffee00;fill-opacity:0.69662924;stroke:#fff800;stroke-width:2.12837505;stroke-linecap:butt;stroke-linejoin:miter;stroke-miterlimit:4;stroke-dasharray:none;stroke-opacity:0.55617975"
       d="M 88.824407,57.901195 V 70.415889 H 88.96662 88.682195"
       id="path1195"
       inkscape:connector-curvature="0"
       sodipodi:nodetypes="cccc" />
    <path
       style="fill:#ffee00;fill-opacity:0.69662924;stroke:#fff800;stroke-width:2.12837505;stroke-linecap:butt;stroke-linejoin:miter;stroke-miterlimit:4;stroke-dasharray:none;stroke-opacity:0.55617975"
       d="M 111.46587,63.993538 102.6487,75.65496"
       id="path1193-5"
       inkscape:connector-curvature="0"
       sodipodi:nodetypes="cc" />
    <path
       style="opacity:1;fill:none;fill-opacity:0.48876409;stroke:#000000;stroke-width:1.06418753;stroke-miterlimit:4;stroke-dasharray:none;stroke-opacity:1"
       id="path852"
       sodipodi:type="arc"
       sodipodi:cx="88.57206"
       sodipodi:cy="118.33442"
       sodipodi:rx="3.1173406"
       sodipodi:ry="1.5586703"
       sodipodi:start="0"
       sodipodi:end="3.1417846"
       d="m 91.6894,118.33442 a 3.1173406,1.5586703 0 0 1 -1.558843,1.3499 3.1173406,1.5586703 0 0 1 -3.117513,-1.5e-4 3.1173406,1.5586703 0 0 1 -1.558325,-1.35005"
       sodipodi:open="true" />
    <rect
       style="opacity:1;fill:#ffffff;fill-opacity:1;stroke:#000000;stroke-width:1.16499996;stroke-miterlimit:4;stroke-dasharray:none;stroke-opacity:1"
       id="rect815-7-9"
       width="20.410715"
       height="25.702381"
       x="17.386908"
       y="56.607143" />
    <flowRoot
       xml:space="preserve"
       id="flowRoot858"
       style="font-style:normal;font-weight:normal;font-size:33.57644264px;line-height:1.25;font-family:sans-serif;letter-spacing:0px;word-spacing:0px;fill:#000000;fill-opacity:1;stroke:none;"
       transform="matrix(0.16810728,0,0,0.16810728,15.163697,53.850326)"><flowRegion
         id="flowRegion860"
         style="font-size:33.57644264px;"><rect
           id="rect862"
           width="63.90078"
           height="65.384903"
           x="21.099218"
           y="21.099226"
           style="font-size:33.57644264px;" /></flowRegion><flowPara
         id="flowPara864">Mo</flowPara></flowRoot>    <flowRoot
       xml:space="preserve"
       id="flowRoot858-3"
       style="font-style:normal;font-weight:normal;font-size:33.57644264px;line-height:1.25;font-family:sans-serif;letter-spacing:0px;word-spacing:0px;fill:#000000;fill-opacity:1;stroke:none;"
       transform="matrix(0.16810728,0,0,0.16810728,35.561775,54.00136)"><flowRegion
         id="flowRegion860-6"
         style="font-size:33.57644264px;"><rect
           id="rect862-7"
           width="63.90078"
           height="65.384903"
           x="21.099218"
           y="21.099226"
           style="font-size:33.57644264px;" /></flowRegion><flowPara
         id="flowPara864-5">Di</flowPara></flowRoot>    <flowRoot
       xml:space="preserve"
       id="flowRoot858-3-3"
       style="font-style:normal;font-weight:normal;font-size:33.57644264px;line-height:1.25;font-family:sans-serif;letter-spacing:0px;word-spacing:0px;fill:#000000;fill-opacity:1;stroke:none;"
       transform="matrix(0.16810728,0,0,0.16810728,55.959854,54.00136)"><flowRegion
         id="flowRegion860-6-5"
         style="font-size:33.57644264px;"><rect
           id="rect862-7-6"
           width="63.90078"
           height="65.384903"
           x="21.099218"
           y="21.099226"
           style="font-size:33.57644264px;" /></flowRegion><flowPara
         id="flowPara864-5-2">Mi</flowPara></flowRoot>    <flowRoot
       xml:space="preserve"
       id="flowRoot858-3-06"
       style="font-style:normal;font-weight:normal;font-size:33.57644264px;line-height:1.25;font-family:sans-serif;letter-spacing:0px;word-spacing:0px;fill:#000000;fill-opacity:1;stroke:none;"
       transform="matrix(0.16810728,0,0,0.16810728,96.756013,53.897935)"><flowRegion
         id="flowRegion860-6-2"
         style="font-size:33.57644264px;"><rect
           id="rect862-7-61"
           width="63.90078"
           height="65.384903"
           x="21.099218"
           y="21.099226"
           style="font-size:33.57644264px;" /></flowRegion><flowPara
         id="flowPara864-5-8">Fr</flowPara></flowRoot>    <flowRoot
       xml:space="preserve"
       id="flowRoot858-3-7"
       style="font-style:normal;font-weight:normal;font-size:33.57644264px;line-height:1.25;font-family:sans-serif;letter-spacing:0px;word-spacing:0px;fill:#000000;fill-opacity:1;stroke:none;"
       transform="matrix(0.16810728,0,0,0.16810728,117.3708,53.894651)"><flowRegion
         id="flowRegion860-6-92"
         style="font-size:33.57644264px;"><rect
           id="rect862-7-0"
           width="63.90078"
           height="65.384903"
           x="21.099218"
           y="21.099226"
           style="font-size:33.57644264px;" /></flowRegion><flowPara
         id="flowPara864-5-23">Sa</flowPara></flowRoot>    <flowRoot
       xml:space="preserve"
       id="flowRoot858-3-75"
       style="font-style:normal;font-weight:normal;font-size:33.57644264px;line-height:1.25;font-family:sans-serif;letter-spacing:0px;word-spacing:0px;fill:#000000;fill-opacity:1;stroke:none;"
       transform="matrix(0.16810728,0,0,0.16810728,137.76887,53.894651)"><flowRegion
         id="flowRegion860-6-922"
         style="font-size:33.57644264px;"><rect
           id="rect862-7-8"
           width="63.90078"
           height="65.384903"
           x="21.099218"
           y="21.099226"
           style="font-size:33.57644264px;" /></flowRegion><flowPara
         id="flowPara864-5-9">So</flowPara></flowRoot>    <flowRoot
       xml:space="preserve"
       id="flowRoot858-3-9"
       style="font-style:normal;font-weight:normal;font-size:40px;line-height:1.25;font-family:sans-serif;letter-spacing:0px;word-spacing:0px;fill:#000000;fill-opacity:1;stroke:none"
       transform="matrix(0.16810728,0,0,0.16810728,75.969757,53.546768)"><flowRegion
         id="flowRegion860-6-1"><rect
           id="rect862-7-2"
           width="63.90078"
           height="65.384903"
           x="21.099218"
           y="21.099226" /></flowRegion><flowPara
         id="flowPara864-5-7">DiDoDo</flowPara></flowRoot>  </g>
</svg>
